<mxfile host="app.diagrams.net" modified="2023-09-28T14:33:11.557Z" agent="Mozilla/5.0 (Windows NT 10.0; Win64; x64) AppleWebKit/537.36 (KHTML, like Gecko) Chrome/117.0.0.0 Safari/537.36 Edg/117.0.2045.43" etag="2gZ1Z54ZCBwuoaYNH7fq" version="21.8.1" type="device">
  <diagram id="C5RBs43oDa-KdzZeNtuy" name="Page-1">
    <mxGraphModel dx="1282" dy="577" grid="1" gridSize="10" guides="1" tooltips="1" connect="1" arrows="1" fold="1" page="1" pageScale="1" pageWidth="827" pageHeight="1169" math="0" shadow="0">
      <root>
        <mxCell id="WIyWlLk6GJQsqaUBKTNV-0" />
        <mxCell id="WIyWlLk6GJQsqaUBKTNV-1" parent="WIyWlLk6GJQsqaUBKTNV-0" />
        <mxCell id="WIyWlLk6GJQsqaUBKTNV-2" value="" style="rounded=0;html=1;jettySize=auto;orthogonalLoop=1;fontSize=11;endArrow=block;endFill=0;endSize=8;strokeWidth=1;shadow=0;labelBackgroundColor=none;edgeStyle=orthogonalEdgeStyle;" parent="WIyWlLk6GJQsqaUBKTNV-1" edge="1">
          <mxGeometry relative="1" as="geometry">
            <mxPoint x="220" y="120" as="sourcePoint" />
            <mxPoint x="220" y="170" as="targetPoint" />
          </mxGeometry>
        </mxCell>
        <mxCell id="Dmv6n7IJ7dX6tq_2Zw9q-16" value="" style="edgeStyle=none;curved=1;rounded=0;orthogonalLoop=1;jettySize=auto;html=1;fontSize=12;startSize=8;endSize=8;" parent="WIyWlLk6GJQsqaUBKTNV-1" source="Dmv6n7IJ7dX6tq_2Zw9q-5" target="Dmv6n7IJ7dX6tq_2Zw9q-15" edge="1">
          <mxGeometry relative="1" as="geometry" />
        </mxCell>
        <mxCell id="Dmv6n7IJ7dX6tq_2Zw9q-17" value="no" style="edgeLabel;html=1;align=center;verticalAlign=middle;resizable=0;points=[];fontSize=16;" parent="Dmv6n7IJ7dX6tq_2Zw9q-16" vertex="1" connectable="0">
          <mxGeometry x="-0.32" y="3" relative="1" as="geometry">
            <mxPoint as="offset" />
          </mxGeometry>
        </mxCell>
        <mxCell id="Dmv6n7IJ7dX6tq_2Zw9q-27" value="" style="edgeStyle=none;curved=1;rounded=0;orthogonalLoop=1;jettySize=auto;html=1;fontSize=12;startSize=8;endSize=8;" parent="WIyWlLk6GJQsqaUBKTNV-1" source="Dmv6n7IJ7dX6tq_2Zw9q-5" target="Dmv6n7IJ7dX6tq_2Zw9q-26" edge="1">
          <mxGeometry relative="1" as="geometry" />
        </mxCell>
        <mxCell id="CCKQvJAvMX6h98q0rVN2-2" value="yes" style="edgeLabel;html=1;align=center;verticalAlign=middle;resizable=0;points=[];" vertex="1" connectable="0" parent="Dmv6n7IJ7dX6tq_2Zw9q-27">
          <mxGeometry x="0.1388" y="2" relative="1" as="geometry">
            <mxPoint as="offset" />
          </mxGeometry>
        </mxCell>
        <mxCell id="Dmv6n7IJ7dX6tq_2Zw9q-5" value="does input int &#39;blocktype&#39; equal &#39;LEAVES&#39; (2)?" style="whiteSpace=wrap;html=1;aspect=fixed;fontSize=16;" parent="WIyWlLk6GJQsqaUBKTNV-1" vertex="1">
          <mxGeometry x="170" y="320" width="100" height="100" as="geometry" />
        </mxCell>
        <mxCell id="Dmv6n7IJ7dX6tq_2Zw9q-12" value="" style="edgeStyle=none;curved=1;rounded=0;orthogonalLoop=1;jettySize=auto;html=1;fontSize=12;startSize=8;endSize=8;" parent="WIyWlLk6GJQsqaUBKTNV-1" source="Dmv6n7IJ7dX6tq_2Zw9q-6" target="Dmv6n7IJ7dX6tq_2Zw9q-5" edge="1">
          <mxGeometry relative="1" as="geometry" />
        </mxCell>
        <mxCell id="Dmv6n7IJ7dX6tq_2Zw9q-13" value="no" style="edgeLabel;html=1;align=center;verticalAlign=middle;resizable=0;points=[];fontSize=16;" parent="Dmv6n7IJ7dX6tq_2Zw9q-12" vertex="1" connectable="0">
          <mxGeometry x="-0.08" y="-4" relative="1" as="geometry">
            <mxPoint as="offset" />
          </mxGeometry>
        </mxCell>
        <mxCell id="Dmv6n7IJ7dX6tq_2Zw9q-25" value="" style="edgeStyle=none;curved=1;rounded=0;orthogonalLoop=1;jettySize=auto;html=1;fontSize=12;startSize=8;endSize=8;" parent="WIyWlLk6GJQsqaUBKTNV-1" source="Dmv6n7IJ7dX6tq_2Zw9q-6" target="Dmv6n7IJ7dX6tq_2Zw9q-24" edge="1">
          <mxGeometry relative="1" as="geometry" />
        </mxCell>
        <mxCell id="CCKQvJAvMX6h98q0rVN2-1" value="yes" style="edgeLabel;html=1;align=center;verticalAlign=middle;resizable=0;points=[];" vertex="1" connectable="0" parent="Dmv6n7IJ7dX6tq_2Zw9q-25">
          <mxGeometry x="-0.1318" y="-1" relative="1" as="geometry">
            <mxPoint as="offset" />
          </mxGeometry>
        </mxCell>
        <mxCell id="Dmv6n7IJ7dX6tq_2Zw9q-6" value="does input int &#39;blocktype&#39; equal &#39;WOOD&#39; (1)?" style="whiteSpace=wrap;html=1;aspect=fixed;fontSize=16;" parent="WIyWlLk6GJQsqaUBKTNV-1" vertex="1">
          <mxGeometry x="170" y="170" width="100" height="100" as="geometry" />
        </mxCell>
        <mxCell id="Dmv6n7IJ7dX6tq_2Zw9q-8" value="no" style="text;html=1;align=center;verticalAlign=middle;resizable=0;points=[];autosize=1;strokeColor=none;fillColor=none;fontSize=16;" parent="WIyWlLk6GJQsqaUBKTNV-1" vertex="1">
          <mxGeometry x="185" y="120" width="40" height="30" as="geometry" />
        </mxCell>
        <mxCell id="Dmv6n7IJ7dX6tq_2Zw9q-23" value="" style="edgeStyle=none;curved=1;rounded=0;orthogonalLoop=1;jettySize=auto;html=1;fontSize=12;startSize=8;endSize=8;" parent="WIyWlLk6GJQsqaUBKTNV-1" source="Dmv6n7IJ7dX6tq_2Zw9q-14" target="Dmv6n7IJ7dX6tq_2Zw9q-22" edge="1">
          <mxGeometry relative="1" as="geometry" />
        </mxCell>
        <mxCell id="CCKQvJAvMX6h98q0rVN2-0" value="yes" style="edgeLabel;html=1;align=center;verticalAlign=middle;resizable=0;points=[];" vertex="1" connectable="0" parent="Dmv6n7IJ7dX6tq_2Zw9q-23">
          <mxGeometry x="-0.3765" y="1" relative="1" as="geometry">
            <mxPoint as="offset" />
          </mxGeometry>
        </mxCell>
        <mxCell id="Dmv6n7IJ7dX6tq_2Zw9q-14" value="does input int &#39;blocktype&#39; equal &#39;AIR&#39; (0)?" style="whiteSpace=wrap;html=1;aspect=fixed;fontSize=16;" parent="WIyWlLk6GJQsqaUBKTNV-1" vertex="1">
          <mxGeometry x="170" y="20" width="100" height="100" as="geometry" />
        </mxCell>
        <mxCell id="Dmv6n7IJ7dX6tq_2Zw9q-19" value="" style="edgeStyle=none;curved=1;rounded=0;orthogonalLoop=1;jettySize=auto;html=1;fontSize=12;startSize=8;endSize=8;" parent="WIyWlLk6GJQsqaUBKTNV-1" source="Dmv6n7IJ7dX6tq_2Zw9q-15" edge="1">
          <mxGeometry relative="1" as="geometry">
            <mxPoint x="220" y="630" as="targetPoint" />
          </mxGeometry>
        </mxCell>
        <mxCell id="Dmv6n7IJ7dX6tq_2Zw9q-20" value="no" style="edgeLabel;html=1;align=center;verticalAlign=middle;resizable=0;points=[];fontSize=16;" parent="Dmv6n7IJ7dX6tq_2Zw9q-19" vertex="1" connectable="0">
          <mxGeometry x="-0.2976" y="-2" relative="1" as="geometry">
            <mxPoint as="offset" />
          </mxGeometry>
        </mxCell>
        <mxCell id="Dmv6n7IJ7dX6tq_2Zw9q-29" value="" style="edgeStyle=none;curved=1;rounded=0;orthogonalLoop=1;jettySize=auto;html=1;fontSize=12;startSize=8;endSize=8;" parent="WIyWlLk6GJQsqaUBKTNV-1" source="Dmv6n7IJ7dX6tq_2Zw9q-15" target="Dmv6n7IJ7dX6tq_2Zw9q-28" edge="1">
          <mxGeometry relative="1" as="geometry" />
        </mxCell>
        <mxCell id="CCKQvJAvMX6h98q0rVN2-3" value="yes" style="edgeLabel;html=1;align=center;verticalAlign=middle;resizable=0;points=[];" vertex="1" connectable="0" parent="Dmv6n7IJ7dX6tq_2Zw9q-29">
          <mxGeometry x="-0.3318" y="4" relative="1" as="geometry">
            <mxPoint as="offset" />
          </mxGeometry>
        </mxCell>
        <mxCell id="Dmv6n7IJ7dX6tq_2Zw9q-15" value="does input int &#39;blocktype&#39; equal &#39;STONE&#39;(3)" style="whiteSpace=wrap;html=1;aspect=fixed;fontSize=16;" parent="WIyWlLk6GJQsqaUBKTNV-1" vertex="1">
          <mxGeometry x="170" y="460" width="100" height="100" as="geometry" />
        </mxCell>
        <mxCell id="Dmv6n7IJ7dX6tq_2Zw9q-34" value="" style="edgeStyle=none;curved=1;rounded=0;orthogonalLoop=1;jettySize=auto;html=1;fontSize=12;startSize=8;endSize=8;" parent="WIyWlLk6GJQsqaUBKTNV-1" source="Dmv6n7IJ7dX6tq_2Zw9q-18" edge="1">
          <mxGeometry relative="1" as="geometry">
            <mxPoint x="220" y="800" as="targetPoint" />
          </mxGeometry>
        </mxCell>
        <mxCell id="Dmv6n7IJ7dX6tq_2Zw9q-35" value="no" style="edgeLabel;html=1;align=center;verticalAlign=middle;resizable=0;points=[];fontSize=16;" parent="Dmv6n7IJ7dX6tq_2Zw9q-34" vertex="1" connectable="0">
          <mxGeometry x="0.0171" y="-2" relative="1" as="geometry">
            <mxPoint as="offset" />
          </mxGeometry>
        </mxCell>
        <mxCell id="Dmv6n7IJ7dX6tq_2Zw9q-18" value="" style="shape=waypoint;sketch=0;size=6;pointerEvents=1;points=[];fillColor=default;resizable=0;rotatable=0;perimeter=centerPerimeter;snapToPoint=1;fontSize=16;" parent="WIyWlLk6GJQsqaUBKTNV-1" vertex="1">
          <mxGeometry x="210" y="720" width="20" height="20" as="geometry" />
        </mxCell>
        <mxCell id="Dmv6n7IJ7dX6tq_2Zw9q-31" value="" style="edgeStyle=none;curved=1;rounded=0;orthogonalLoop=1;jettySize=auto;html=1;fontSize=12;startSize=8;endSize=8;" parent="WIyWlLk6GJQsqaUBKTNV-1" source="Dmv6n7IJ7dX6tq_2Zw9q-21" target="Dmv6n7IJ7dX6tq_2Zw9q-30" edge="1">
          <mxGeometry relative="1" as="geometry" />
        </mxCell>
        <mxCell id="CCKQvJAvMX6h98q0rVN2-4" value="yes" style="edgeLabel;html=1;align=center;verticalAlign=middle;resizable=0;points=[];" vertex="1" connectable="0" parent="Dmv6n7IJ7dX6tq_2Zw9q-31">
          <mxGeometry x="0.3741" y="2" relative="1" as="geometry">
            <mxPoint as="offset" />
          </mxGeometry>
        </mxCell>
        <mxCell id="Dmv6n7IJ7dX6tq_2Zw9q-21" value="does input int &#39;blocktype&#39; equal &#39;IRON_ORE&#39; (4)?" style="whiteSpace=wrap;html=1;aspect=fixed;fontSize=16;" parent="WIyWlLk6GJQsqaUBKTNV-1" vertex="1">
          <mxGeometry x="170" y="630" width="100" height="100" as="geometry" />
        </mxCell>
        <mxCell id="Dmv6n7IJ7dX6tq_2Zw9q-22" value="" style="shape=waypoint;sketch=0;size=6;pointerEvents=1;points=[];fillColor=default;resizable=0;rotatable=0;perimeter=centerPerimeter;snapToPoint=1;fontSize=16;" parent="WIyWlLk6GJQsqaUBKTNV-1" vertex="1">
          <mxGeometry x="430" y="60" width="20" height="20" as="geometry" />
        </mxCell>
        <mxCell id="Dmv6n7IJ7dX6tq_2Zw9q-24" value="" style="shape=waypoint;sketch=0;size=6;pointerEvents=1;points=[];fillColor=default;resizable=0;rotatable=0;perimeter=centerPerimeter;snapToPoint=1;fontSize=16;" parent="WIyWlLk6GJQsqaUBKTNV-1" vertex="1">
          <mxGeometry x="430" y="210" width="20" height="20" as="geometry" />
        </mxCell>
        <mxCell id="Dmv6n7IJ7dX6tq_2Zw9q-26" value="" style="shape=waypoint;sketch=0;size=6;pointerEvents=1;points=[];fillColor=default;resizable=0;rotatable=0;perimeter=centerPerimeter;snapToPoint=1;fontSize=16;" parent="WIyWlLk6GJQsqaUBKTNV-1" vertex="1">
          <mxGeometry x="430" y="360" width="20" height="20" as="geometry" />
        </mxCell>
        <mxCell id="Dmv6n7IJ7dX6tq_2Zw9q-28" value="" style="shape=waypoint;sketch=0;size=6;pointerEvents=1;points=[];fillColor=default;resizable=0;rotatable=0;perimeter=centerPerimeter;snapToPoint=1;fontSize=16;" parent="WIyWlLk6GJQsqaUBKTNV-1" vertex="1">
          <mxGeometry x="430" y="500" width="20" height="20" as="geometry" />
        </mxCell>
        <mxCell id="Dmv6n7IJ7dX6tq_2Zw9q-30" value="" style="shape=waypoint;sketch=0;size=6;pointerEvents=1;points=[];fillColor=default;resizable=0;rotatable=0;perimeter=centerPerimeter;snapToPoint=1;fontSize=16;" parent="WIyWlLk6GJQsqaUBKTNV-1" vertex="1">
          <mxGeometry x="430" y="670" width="20" height="20" as="geometry" />
        </mxCell>
        <mxCell id="Dmv6n7IJ7dX6tq_2Zw9q-36" value="return &quot;Unknown&quot;" style="ellipse;whiteSpace=wrap;html=1;aspect=fixed;fontSize=16;" parent="WIyWlLk6GJQsqaUBKTNV-1" vertex="1">
          <mxGeometry x="155" y="800" width="130" height="130" as="geometry" />
        </mxCell>
        <mxCell id="Dmv6n7IJ7dX6tq_2Zw9q-37" value="return &quot;Iron Ore&quot;" style="ellipse;whiteSpace=wrap;html=1;aspect=fixed;fontSize=16;" parent="WIyWlLk6GJQsqaUBKTNV-1" vertex="1">
          <mxGeometry x="440" y="640" width="80" height="80" as="geometry" />
        </mxCell>
        <mxCell id="Dmv6n7IJ7dX6tq_2Zw9q-38" value="return &quot;Stone&quot;" style="ellipse;whiteSpace=wrap;html=1;aspect=fixed;fontSize=16;" parent="WIyWlLk6GJQsqaUBKTNV-1" vertex="1">
          <mxGeometry x="440" y="470" width="80" height="80" as="geometry" />
        </mxCell>
        <mxCell id="Dmv6n7IJ7dX6tq_2Zw9q-39" value="return &quot;Leaves&quot;" style="ellipse;whiteSpace=wrap;html=1;aspect=fixed;fontSize=16;" parent="WIyWlLk6GJQsqaUBKTNV-1" vertex="1">
          <mxGeometry x="440" y="330" width="80" height="80" as="geometry" />
        </mxCell>
        <mxCell id="Dmv6n7IJ7dX6tq_2Zw9q-40" value="return &quot;Wood&quot;" style="ellipse;whiteSpace=wrap;html=1;aspect=fixed;fontSize=16;" parent="WIyWlLk6GJQsqaUBKTNV-1" vertex="1">
          <mxGeometry x="440" y="180" width="80" height="80" as="geometry" />
        </mxCell>
        <mxCell id="Dmv6n7IJ7dX6tq_2Zw9q-41" value="return &quot;Empty Block&quot;" style="ellipse;whiteSpace=wrap;html=1;aspect=fixed;fontSize=16;" parent="WIyWlLk6GJQsqaUBKTNV-1" vertex="1">
          <mxGeometry x="440" y="30" width="80" height="80" as="geometry" />
        </mxCell>
      </root>
    </mxGraphModel>
  </diagram>
</mxfile>
